<svg width="147" height="170" viewBox="0 0 147 170" fill="none" xmlns="http://www.w3.org/2000/svg">
<path d="M125.3 68.2C122.3 60.2 118.4 53.1 113.6 46.9C109 40.7 103.4 35.8 96.8 32.2C90.2 28.6 82.8 26.8 74.6 26.8C64.8 26.8 56 29.3 48.2 34.3C40.6 39.3 34.6 46.3 30.2 55.3C26 64.1 23.9 74 23.9 85C23.9 96 26 106 30.2 115C34.6 123.8 40.7 130.7 48.5 135.7C56.3 140.7 65.1 143.2 74.9 143.2C83.7 143.2 91.4 141.2 98 137.2C104.8 133.2 110.5 128 115.1 121.6C119.9 115.2 123.8 107.9 126.8 99.7L146.3 104.8L128.9 169.6H108.5L107.6 168.1L116 146.2C113.2 148 110.1 149.9 106.7 151.9C102.1 155.1 97 157.8 91.4 160C85.8 162.2 79.4 163.3 72.2 163.3C59 163.3 46.9 159.9 35.9 153.1C24.9 146.3 16.2 136.9 9.8 124.9C3.4 112.9 0.200001 99.5 0.200001 84.7C0.200001 69.9 3.4 56.6 9.8 44.8C16.2 33 24.9 23.7 35.9 16.9C46.9 10.1 59.3 6.69999 73.1 6.69999C80.1 6.69999 86.3 7.79999 91.7 10C97.1 12 102 14.6 106.4 17.8C107.8 18.6 109.1 19.4 110.3 20.2C111.7 21 112.9 21.6 113.9 22L105.8 2.49999L107 0.699995H127.7L144.2 63.1L125.3 68.2Z" fill="white"/>

</svg>
