<svg width="250" height="291" viewBox="0 0 250 291" fill="none" xmlns="http://www.w3.org/2000/svg">
<path d="M26.2264 56.1915C-11.7434 106.795 -5.45358 166.796 26.2264 218.191C53.2213 261.986 87.619 278.19 138.199 287.593C163.693 292.332 178.257 293.218 201.726 282.191C228.023 269.836 234.226 261.192 244.226 232.191C250.782 213.178 248.726 172.192 248.726 172.192H198.226C198.226 172.192 202.121 203.301 191.726 218.191C180.227 234.664 162.296 233.085 142.226 232.191C111.334 230.816 86.1368 216.349 68.7264 190.793C43.0549 153.11 40.3087 104.098 74.7264 74.1914C96.1753 55.5536 123.212 51.4332 151.226 56.1914C168.29 59.0897 181.644 60.1229 191.726 74.1914C203.328 90.3804 198.226 125.191 198.226 125.191H248.726V101.691V74.1914C248.726 74.1914 246.9 52.1034 240.226 40.1261C231.319 24.1412 221.329 17.1038 204.599 9.69141C180.89 -0.812398 163.818 -1.71772 138.199 2.29016C90.2512 9.79107 55.3531 17.3733 26.2264 56.1915Z" fill="black"/>
</svg>
