<svg width="180" height="219" viewBox="0 0 180 219" fill="none" xmlns="http://www.w3.org/2000/svg">
<path d="M180 182.361L173.99 209.84H131.319V205.677C131.92 186.802 132.22 164.597 132.22 139.061V46.6312L29.7496 219H24.0401C24.8414 192.354 25.2421 168.205 25.2421 146.555V25.3973C21.6361 25.3973 14.8247 27.0627 4.80801 30.3935L0.901503 31.6426L0 29.1445L5.70952 1.6654H28.8481C31.8531 1.6654 35.3589 1.52661 39.3656 1.24903C43.5726 0.97147 46.6778 0.555126 48.6811 0V3.33079C47.8798 24.4258 47.4791 47.3251 47.4791 72.0285V151.135L134.324 1.6654H135.526C138.13 1.6654 141.235 1.52661 144.841 1.24903C148.648 0.97147 152.254 0.555126 155.659 0L155.96 3.33079C155.76 8.60455 155.559 14.0171 155.359 19.5684C155.359 25.1198 155.259 30.8099 155.058 36.6388C155.058 42.4677 154.958 48.4354 154.758 54.5418C154.758 60.6483 154.758 66.616 154.758 72.4449V186.108C157.362 186.108 164.174 184.443 175.192 181.112C175.793 180.835 176.394 180.696 176.995 180.696C177.596 180.418 178.197 180.141 178.798 179.863L180 182.361Z" fill="white"/>
</svg>
