<svg width="174" height="275" viewBox="40 -90 254 335" fill="none" xmlns="http://www.w3.org/2000/svg">
<path d="M125.499 91.5003C110.5 95.501 83.0014 48.0009 132.999 48.0003C183.799 47.9997 249.166 48.0003 275.5 48.0003M153.5 62.001L100 208.001C91.8333 221.334 69.8 240.801 47 212.001M214.5 62.001L162.5 208.001C160.5 224.668 169.6 245.501 222 195.501" stroke="white" stroke-width="12" stroke-linecap="round"/>
<path d="M97.7845 99.6995C98.1703 100.095 98.8034 100.102 99.1986 99.7166C99.5938 99.3308 99.6015 98.6976 99.2157 98.3024L97.7845 99.6995ZM90.5001 56.001L81.494 63.2276L92.2554 67.4138L90.5001 56.001ZM99.2157 98.3024C96.4235 95.4422 92.8559 90.5857 90.3981 84.6405C87.942 78.6994 86.6187 71.7332 88.213 64.6073L86.2613 64.1707C84.5525 71.8079 85.986 79.203 88.5498 85.4046C91.112 91.6023 94.8274 96.6703 97.7845 99.6995L99.2157 98.3024Z" fill="white"/>
<path d="M210.919 127.895C211.137 127.387 210.902 126.799 210.394 126.582C209.886 126.364 209.298 126.599 209.081 127.107L210.919 127.895ZM193.5 166.001L202.746 159.084L192.133 154.535L193.5 166.001ZM209.081 127.107L196.126 157.335L197.964 158.123L210.919 127.895L209.081 127.107Z" fill="white"/>
<path d="M115.919 124.895C116.137 124.387 115.902 123.799 115.394 123.582C114.886 123.364 114.298 123.599 114.081 124.107L115.919 124.895ZM98.5 163.001L107.746 156.084L97.1325 151.535L98.5 163.001ZM114.081 124.107L101.126 154.335L102.964 155.123L115.919 124.895L114.081 124.107Z" fill="white"/>
</svg>
